<svg xmlns="http://www.w3.org/2000/svg" xmlns:xlink="http://www.w3.org/1999/xlink" width="459" zoomAndPan="magnify" viewBox="0 0 344.25 197.999996" height="264" preserveAspectRatio="xMidYMid meet" version="1.2"><defs><clipPath id="bdcc36527b"><path d="M 46 5.152344 L 274.839844 5.152344 L 274.839844 192.847656 L 46 192.847656 Z M 46 5.152344 "/></clipPath><clipPath id="3aff693cf3"><path d="M 46.078125 25.683594 L 46.078125 127.445312 C 46.078125 138.785156 55.273438 147.980469 66.613281 147.980469 L 90.175781 147.980469 C 96.113281 147.980469 101.765625 150.550781 105.664062 155.03125 L 132.449219 185.796875 C 136.347656 190.277344 141.996094 192.847656 147.9375 192.847656 L 225.71875 192.847656 C 231.648438 192.847656 237.289062 190.289062 241.1875 185.820312 L 267.46875 155.726562 C 271.832031 150.730469 274.234375 144.324219 274.234375 137.691406 L 274.234375 25.683594 C 274.234375 20.238281 272.074219 15.015625 268.222656 11.164062 C 264.371094 7.3125 259.148438 5.148438 253.699219 5.152344 L 66.613281 5.152344 C 55.273438 5.152344 46.078125 14.34375 46.078125 25.683594 Z M 46.078125 25.683594 "/></clipPath><clipPath id="5bd8b1e199"><path d="M 0 0.152344 L 228.441406 0.152344 L 228.441406 187.847656 L 0 187.847656 Z M 0 0.152344 "/></clipPath><clipPath id="2e163c6d7b"><path d="M 0.078125 20.683594 L 0.078125 122.445312 C 0.078125 133.785156 9.273438 142.980469 20.613281 142.980469 L 44.175781 142.980469 C 50.113281 142.980469 55.765625 145.550781 59.664062 150.03125 L 86.449219 180.796875 C 90.347656 185.277344 95.996094 187.847656 101.9375 187.847656 L 179.71875 187.847656 C 185.648438 187.847656 191.289062 185.289062 195.1875 180.820312 L 221.46875 150.726562 C 225.832031 145.730469 228.234375 139.324219 228.234375 132.691406 L 228.234375 20.683594 C 228.234375 15.238281 226.074219 10.015625 222.222656 6.164062 C 218.371094 2.3125 213.148438 0.148438 207.699219 0.152344 L 20.613281 0.152344 C 9.273438 0.152344 0.078125 9.34375 0.078125 20.683594 Z M 0.078125 20.683594 "/></clipPath><clipPath id="74f0f22c4e"><rect x="0" width="229" y="0" height="188"/></clipPath></defs><g id="78552de684"><g clip-rule="nonzero" clip-path="url(#bdcc36527b)"><g clip-rule="nonzero" clip-path="url(#3aff693cf3)"><g transform="matrix(1,0,0,1,46,5)"><g clip-path="url(#74f0f22c4e)"><g clip-rule="nonzero" clip-path="url(#5bd8b1e199)"><g clip-rule="nonzero" clip-path="url(#2e163c6d7b)"><path style=" stroke:none;fill-rule:nonzero;fill:#aff6f6;fill-opacity:1;" d="M 0.078125 0.152344 L 228.105469 0.152344 L 228.105469 187.847656 L 0.078125 187.847656 Z M 0.078125 0.152344 "/></g></g></g></g></g></g></g></svg>